<svg width="64" height="34" viewBox="0 0 64 34" fill="none" xmlns="http://www.w3.org/2000/svg">
<path d="M63.0723 9.8827C62.7449 9.83057 60.3286 18.0557 59.7821 18.0557C59.2361 18.0557 60.1877 14.7766 59.5984 14.4991C59.104 14.2656 57.6689 16.8596 57.1166 16.4892C56.7088 16.2157 52.4356 12.122 51.7268 10.8963C51.0168 9.67033 51.9984 9.51029 52.49 9.56282C52.9816 9.61779 54.9978 9.88128 55.108 6.89793C55.2169 5.08333 54.5621 5.67136 53.7989 6.04357C53.0357 6.41618 50.5267 8.60421 50.0903 8.44376C49.6537 8.28311 46.5994 0.283347 42.6723 0.0184393C38.7438 -0.249511 34.3258 2.47097 31.7069 3.75047C29.0902 5.03019 19.2154 2.36326 14.4165 2.52309C9.61643 2.68354 3.66626 8.82388 5.27664 16.8178C5.27664 16.8178 3.20582 22.5009 0 24.9802C1.60914 26.3017 5.75845 18.779 6.34608 18.9084C6.93412 19.0395 8.14902 23.1514 9.81957 24.2624C10.4379 24.72 7.73568 27.1133 9.81957 30.6634C10.2211 31.7057 10.2871 31.9672 9.81957 32.1629C9.3527 32.3599 8.48371 33.9928 9.41806 33.9928C10.3545 33.9928 18.6384 33.9928 18.6384 33.9928C19.2715 34.0392 19.7611 32.2254 16.9251 31.9061C16.1078 31.7986 15.7803 30.5201 15.3435 29.5603C14.9072 28.6001 15.1244 27.4264 16.1617 26.8944C17.1982 26.3613 19.0467 29.2412 20.6279 31.109C20.3004 32.2272 19.319 33.9994 20.6279 33.9942C21.937 33.9857 28.4826 33.9942 28.4826 33.9942C28.4826 33.9942 29.2989 33.5607 28.7551 32.8666C28.2094 32.1743 26.1381 32.0668 25.7547 30.8938C25.3725 29.7218 23.7438 28.0147 24.507 26.4688C25.2714 24.921 25.7007 23.8723 26.5262 23.8549C27.3609 23.8374 29.7973 23.8001 30.3429 23.7474C30.8898 23.696 31.3814 23.4808 31.4895 24.654C31.598 25.8277 32.0898 28.7068 33.126 30.3595C33.4524 31.4804 33.1273 31.7986 32.6894 32.3859C32.252 32.9727 31.5445 33.9994 32.8527 33.9942C34.1627 33.9857 41.035 33.9942 41.035 33.9942C41.035 33.9942 42.0162 32.8666 41.035 32.2254C40.0533 31.5879 38.7994 31.3729 38.7444 30.0392C38.6902 28.707 39.5617 26.4358 39.8892 26.9137C40.217 27.3944 40.2116 30.0579 41.4663 30.5895C42.7221 31.1232 42.9858 32.3859 42.9858 33.0264C42.9858 33.665 42.8223 34.0528 44.1306 33.9942C45.4401 33.9311 51.1129 33.9994 51.1129 33.9994C51.1129 33.9994 52.0397 33.1857 51.1129 32.5453C50.1839 31.9061 48.2764 31.2124 47.7305 30.1467C47.1849 29.0806 43.3797 23.5885 44.363 23.2676C45.3442 22.9486 46.2242 24.921 50.5572 24.7615C51.781 24.8672 54.8364 25.8802 56.0903 27.1072C57.3438 28.3337 59.3631 28.6528 60.617 26.8926C61.8709 25.1352 64.053 19.9066 63.999 14.8423C63.9449 9.77702 63.4002 9.93767 63.0723 9.8827Z" fill="white"/>
</svg>
