<svg width="170" height="213" viewBox="0 0 170 213" fill="none" xmlns="http://www.w3.org/2000/svg">
<path fill-rule="evenodd" clip-rule="evenodd" d="M169.21 178.613L141.233 134.851C144.382 134.199 147.221 132.42 149.176 129.831C151.431 126.846 152.331 123.024 151.644 119.346C151.062 116.234 152.636 113.073 155.47 111.661C158.819 109.993 161.326 106.973 162.35 103.374C163.374 99.776 162.832 95.8877 160.863 92.7074C159.197 90.0144 159.523 86.4987 161.656 84.1581C164.175 81.3931 165.422 77.6708 165.077 73.946C164.732 70.2208 162.822 66.7908 159.837 64.5359C157.31 62.6272 156.344 59.2316 157.488 56.2781C158.839 52.7898 158.657 48.8683 156.99 45.5195C155.322 42.1707 152.302 39.6624 148.704 38.6372C145.658 37.7702 143.531 34.953 143.53 31.7863C143.529 28.0454 141.943 24.4543 139.178 21.934C136.414 19.4137 132.69 18.1654 128.967 18.5103C125.812 18.796 122.812 16.9435 121.668 13.9905C120.316 10.5026 117.539 7.72677 114.051 6.37532C110.562 5.02386 106.641 5.20522 103.292 6.87176C100.457 8.28408 96.9868 7.63403 94.8532 5.29424H94.8528C92.3321 2.53046 88.7406 0.945068 84.9997 0.945068C81.2587 0.945068 77.6673 2.53046 75.1466 5.29424C73.0125 7.63361 69.5424 8.28284 66.707 6.87218C63.3582 5.20522 59.4363 5.02345 55.9483 6.37532C52.46 7.72636 49.6838 10.5021 48.3315 13.9905C47.1871 16.9435 44.1848 18.7976 41.0322 18.5103C37.3079 18.1629 33.5852 19.4133 30.8206 21.934C28.056 24.4539 26.4701 28.0454 26.4693 31.7867C26.4689 34.9534 24.3411 37.7706 21.2954 38.6376C17.6973 39.6619 14.6772 42.1703 13.0098 45.5195C11.3425 48.8683 11.1607 52.7898 12.5113 56.2781C13.6549 59.2311 12.6885 62.6272 10.162 64.5359C7.17712 66.7913 5.26712 70.2208 4.92221 73.946C4.5769 77.6708 5.82443 81.3931 8.3435 84.1577C10.4763 86.4992 10.8021 90.0144 9.13558 92.7074C7.16677 95.8885 6.6252 99.7765 7.64873 103.375C8.67267 106.973 11.1802 109.993 14.5286 111.661C17.3631 113.073 18.9369 116.234 18.3556 119.346C17.6687 123.024 18.568 126.845 20.8225 129.831C22.7777 132.42 25.6176 134.199 28.7669 134.851L0.789594 178.613C-0.240559 180.224 -0.264574 182.24 0.726659 183.876C1.71706 185.51 3.51652 186.425 5.42073 186.255L32.7264 183.852L42.0069 209.644C42.6541 211.443 44.2366 212.694 46.1366 212.907C46.3271 212.928 46.5163 212.938 46.7043 212.938C48.3932 212.938 49.96 212.09 50.8862 210.641L84.9997 157.28L119.113 210.641C120.04 212.09 121.607 212.938 123.295 212.938C123.483 212.938 123.673 212.928 123.864 212.906C125.763 212.693 127.346 211.443 127.993 209.644L137.273 183.852L164.579 186.254C166.484 186.422 168.282 185.511 169.274 183.875C170.264 182.24 170.24 180.224 169.21 178.613ZM7.37007 179.849L34.6468 137.182C35.6173 138.169 36.3096 139.434 36.5754 140.856C37.0768 143.536 38.3943 145.98 40.3019 147.872L20.8772 178.66L7.37007 179.849ZM39.4278 184.135L38.2482 180.857C37.4834 178.731 35.3739 177.382 33.1268 177.582L28.6518 177.976L45.6116 151.095C48.0943 151.89 50.7839 151.954 53.3303 151.23C55.4792 150.619 57.7482 151.078 59.4856 152.344L39.4278 184.135ZM47.002 205.185L42.0947 191.547L63.7552 157.215C65.5617 158.84 67.7951 159.964 70.2227 160.418C71.0326 160.569 71.8491 160.643 72.6627 160.643C73.6903 160.643 74.711 160.519 75.7063 160.286L47.002 205.185ZM86.9366 150.464C86.7362 150.42 86.5317 150.396 86.3259 150.391C85.4431 150.304 84.555 150.304 83.6722 150.391C83.4669 150.396 83.2623 150.42 83.0623 150.464C80.8944 150.779 78.7898 151.619 76.9651 152.996C75.3465 154.218 73.3566 154.686 71.3634 154.313C69.3697 153.941 67.6833 152.785 66.6155 151.061C66.4201 150.745 66.2085 150.444 65.9899 150.15C65.9282 150.06 65.8623 149.973 65.7911 149.89C63.2439 146.63 59.3162 144.754 55.2461 144.754C54.0429 144.754 52.8273 144.917 51.6323 145.257C49.6813 145.812 47.6566 145.528 45.9325 144.461C44.208 143.394 43.0532 141.708 42.6802 139.714C41.8848 135.464 39.0663 131.953 35.3109 130.148C35.1196 130.036 34.9213 129.947 34.7184 129.88C33.4912 129.362 32.1778 129.016 30.8052 128.889C28.7859 128.701 27.0005 127.707 25.7783 126.088C24.556 124.469 24.0877 122.48 24.4599 120.486C25.5476 114.66 22.6025 108.745 17.2977 106.102C15.4825 105.198 14.177 103.625 13.6218 101.675C13.067 99.7239 13.3489 97.6996 14.4164 95.9755C17.5354 90.9361 16.9259 84.3564 12.9336 79.9754C11.5677 78.4765 10.9185 76.5388 11.1056 74.5191C11.2928 72.4993 12.2869 70.714 13.9054 69.4913C18.6343 65.9184 20.4428 59.5632 18.3026 54.0361C17.5706 52.1447 17.665 50.1034 18.5688 48.2874C19.4727 46.4714 21.0453 45.1659 22.9959 44.6107C28.6961 42.9876 32.6784 37.7147 32.6792 31.788C32.6796 29.7596 33.5052 27.8901 35.0041 26.5233C36.503 25.157 38.4399 24.5073 40.4604 24.6937C46.359 25.2448 51.9801 21.7618 54.122 16.2351C54.8548 14.3437 56.3003 12.8987 58.1917 12.1662C60.0822 11.4342 62.1243 11.5273 63.9403 12.432C69.2468 15.0724 75.7411 13.858 79.735 9.47903C81.1018 7.98059 82.9712 7.15539 84.9997 7.15539C87.0281 7.15539 88.8975 7.98059 90.2639 9.47903C94.2586 13.8584 100.753 15.0732 106.059 12.4316C107.875 11.5282 109.917 11.4342 111.807 12.1662C113.699 12.8987 115.144 14.3437 115.877 16.2346C118.018 21.761 123.632 25.239 129.538 24.6937C131.56 24.5069 133.496 25.157 134.994 26.5233C136.494 27.8897 137.319 29.7596 137.32 31.788C137.321 37.7151 141.303 42.9876 147.003 44.6102C148.954 45.1659 150.526 46.4718 151.43 48.2874C152.334 50.103 152.429 52.1447 151.696 54.0361C149.556 59.5632 151.365 65.9189 156.094 69.4913C157.712 70.714 158.706 72.4993 158.893 74.5191C159.08 76.5388 158.431 78.4765 157.065 79.9754C153.073 84.356 152.464 90.9353 155.582 95.9755C156.65 97.7004 156.932 99.7243 156.377 101.675C155.822 103.625 154.516 105.198 152.701 106.102C147.396 108.745 144.451 114.66 145.539 120.486C145.911 122.48 145.443 124.469 144.221 126.088C142.998 127.707 141.213 128.701 139.193 128.889C137.821 129.016 136.508 129.362 135.281 129.88C135.078 129.947 134.881 130.036 134.69 130.147C130.933 131.952 128.114 135.463 127.319 139.714C126.946 141.708 125.791 143.394 124.066 144.461C122.341 145.529 120.317 145.812 118.367 145.257C113.143 143.771 107.537 145.66 104.233 149.864C104.21 149.891 104.187 149.918 104.165 149.946C104.147 149.969 104.129 149.992 104.112 150.014C103.855 150.351 103.609 150.697 103.383 151.062C102.315 152.786 100.629 153.941 98.6351 154.314C96.6415 154.686 94.652 154.219 93.0331 152.997C91.2092 151.619 89.1046 150.779 86.9366 150.464ZM122.997 205.185L94.2967 160.293C96.0788 160.708 97.9457 160.76 99.7771 160.418C102.204 159.964 104.437 158.84 106.243 157.216L127.904 191.548L122.997 205.185ZM136.871 177.582C134.628 177.39 132.516 178.731 131.751 180.857L130.571 184.137L110.513 152.346C112.25 151.079 114.52 150.62 116.669 151.231C119.215 151.954 121.904 151.891 124.386 151.096L141.346 177.976L136.871 177.582ZM149.121 178.66L129.696 147.874C131.604 145.981 132.922 143.537 133.424 140.857C133.69 139.435 134.382 138.17 135.352 137.183L162.629 179.849L149.121 178.66ZM124.124 36.3869C134.833 45.8288 141.77 58.7836 143.657 72.8654C143.885 74.5651 142.691 76.1277 140.992 76.3554C140.852 76.3741 140.713 76.3832 140.575 76.3832C139.044 76.3832 137.711 75.2499 137.502 73.6902C133.998 47.5409 111.427 27.8219 84.9998 27.8219C58.5789 27.8219 36.0087 47.5355 32.4997 73.6774C32.2715 75.377 30.706 76.5666 29.0092 76.3418C27.3096 76.1132 26.1167 74.5506 26.3452 72.8513C28.235 58.7728 35.1728 45.821 45.8813 36.3823C56.6871 26.8571 70.5797 21.6115 84.9998 21.6115C99.4224 21.6115 113.317 26.8588 124.124 36.3869ZM137.569 87.3728C137.78 85.671 139.335 84.4695 141.032 84.6723C142.734 84.8831 143.943 86.4337 143.732 88.1354C140.074 117.691 114.825 139.979 85 139.979C55.1529 139.979 29.9013 117.673 26.2618 88.0932C26.0523 86.3911 27.2626 84.8413 28.9643 84.6318C30.6693 84.4239 32.2158 85.6329 32.4253 87.3347C35.6822 113.806 58.2843 133.769 84.9996 133.769C111.695 133.769 134.295 113.823 137.569 87.3728ZM123.976 69.4577C123.991 69.5049 124.005 69.5525 124.018 69.6002C124.157 70.0871 124.207 70.5877 124.164 71.0883C124.16 71.1367 124.155 71.1856 124.148 71.234C124.131 71.376 124.108 71.511 124.078 71.6447C124.064 71.7073 124.046 71.7776 124.026 71.8451C123.996 71.9569 123.961 72.0667 123.921 72.1764C123.9 72.2314 123.879 72.2861 123.855 72.3395C123.801 72.4708 123.739 72.5983 123.672 72.7208C123.665 72.7345 123.657 72.7482 123.65 72.7616L123.645 72.7701C123.593 72.8616 123.535 72.9523 123.474 73.0413C123.432 73.1063 123.387 73.1705 123.339 73.2347C123.214 73.3986 123.078 73.5523 122.932 73.6955L106.969 89.2559L110.736 111.221C111.004 112.789 110.372 114.34 109.087 115.273C109.053 115.298 109.019 115.321 108.985 115.344C108.977 115.35 108.968 115.356 108.959 115.361C108.952 115.366 108.945 115.371 108.937 115.376C108.837 115.442 108.733 115.505 108.628 115.563L108.617 115.569C108.597 115.58 108.577 115.59 108.556 115.601C108.248 115.76 107.924 115.88 107.59 115.957C107.542 115.968 107.494 115.979 107.445 115.987C107.324 116.012 107.181 116.034 107.037 116.047C106.982 116.052 106.923 116.056 106.864 116.059C106.726 116.066 106.587 116.067 106.448 116.06C106.418 116.059 106.389 116.057 106.359 116.055C106.347 116.054 106.334 116.053 106.322 116.051C106.164 116.039 106.014 116.019 105.867 115.99C105.857 115.988 105.848 115.986 105.839 115.984C105.818 115.98 105.798 115.976 105.777 115.972C105.612 115.936 105.447 115.889 105.287 115.833C105.081 115.759 104.899 115.679 104.726 115.588L84.9997 105.217L65.274 115.587C64.6624 115.908 64.0008 116.067 63.3425 116.067C62.4891 116.067 61.6411 115.8 60.9161 115.275C60.758 115.159 60.6197 115.043 60.4921 114.922C60.4872 114.917 60.4826 114.913 60.4777 114.908C60.2363 114.677 60.0234 114.417 59.8438 114.134C59.8284 114.11 59.8139 114.086 59.799 114.062C59.6231 113.77 59.4835 113.457 59.3837 113.131C59.3831 113.13 59.3825 113.128 59.3819 113.126C59.3813 113.124 59.3808 113.123 59.3804 113.121C59.3684 113.084 59.3577 113.046 59.3473 113.008C59.3121 112.878 59.284 112.744 59.2612 112.608C59.25 112.544 59.2401 112.479 59.233 112.419C59.2152 112.272 59.209 112.139 59.2069 112.03C59.2045 111.968 59.2036 111.906 59.2045 111.85C59.2078 111.718 59.216 111.606 59.2285 111.497C59.2368 111.406 59.2475 111.316 59.2633 111.225L63.0315 89.2551L47.0728 73.6997C45.9371 72.5925 45.5351 70.9669 46.0232 69.4581C46.1859 68.9551 46.4389 68.4951 46.7747 68.0889C46.7888 68.0715 46.8033 68.0545 46.8178 68.0371C46.9263 67.91 47.0443 67.7879 47.1697 67.6732C47.1783 67.6652 47.1869 67.6573 47.1957 67.6494C47.2042 67.6417 47.2129 67.634 47.2215 67.6264C47.33 67.5303 47.4442 67.4401 47.5684 67.3527C47.6202 67.315 47.6732 67.279 47.7254 67.2459C47.7953 67.1999 47.891 67.1444 47.9924 67.0902C48.0732 67.0447 48.156 67.0033 48.2417 66.9643C48.3187 66.9283 48.421 66.8877 48.527 66.8492C48.609 66.8177 48.6922 66.7892 48.7783 66.7635C48.9075 66.7258 49.0362 66.6956 49.165 66.6708C49.2387 66.6554 49.3141 66.6414 49.3828 66.6323L71.4218 63.4292L81.2849 43.4451C81.9883 42.0208 83.4114 41.136 84.9993 41.136C86.588 41.136 88.0115 42.0212 88.7141 43.4459L98.5768 63.4296L120.631 66.6347C122.204 66.8633 123.486 67.9452 123.976 69.4577ZM100.572 88.6965C100.399 87.6895 100.733 86.6615 101.464 85.9481L115.591 72.178L96.0689 69.341C95.0574 69.1944 94.1833 68.5592 93.7308 67.6425L84.9997 49.9519L76.2687 67.6425C75.8165 68.5588 74.9425 69.1944 73.9309 69.341L54.4081 72.178L68.535 85.9481C69.2671 86.6615 69.6008 87.6895 69.4282 88.6965L66.093 108.141L83.5547 98.9604C84.0072 98.7227 84.5033 98.6039 84.9997 98.6039C85.4961 98.6039 85.9922 98.7227 86.4447 98.9604L103.906 108.141L100.572 88.6965Z" fill="#2F4858"/>
</svg>
