<svg width="30" height="30" viewBox="0 0 30 30" fill="none" xmlns="http://www.w3.org/2000/svg">
<path d="M5.0547 0.867242C3.89878 -0.289081 2.02358 -0.289081 0.867661 0.867242C-0.288979 2.02357 -0.288979 3.89836 0.867661 5.05473L10.8126 14.9998L0.866938 24.9453C-0.288979 26.1016 -0.288979 27.9764 0.866938 29.1328C2.02358 30.2891 3.89806 30.2891 5.0547 29.1328L15.0004 19.1873L24.9453 29.1328C26.1019 30.2891 27.9764 30.2891 29.1331 29.1328C30.289 27.9764 30.289 26.1016 29.1331 24.9453L19.1874 14.9998L29.1323 5.05473C30.289 3.89836 30.289 2.02357 29.1323 0.867242C27.9764 -0.289081 26.1012 -0.289081 24.9453 0.867242L15.0004 10.8124L5.0547 0.867242Z" fill="#FB0201"/>
</svg>
