<svg width="64" height="45" viewBox="0 0 64 45" fill="none" xmlns="http://www.w3.org/2000/svg">
<path d="M57.7607 26.3028C59.6939 20.7186 55.7792 5.88088 50.972 4.11858C46.1663 2.35473 43.093 2.15884 43.093 2.15884C43.093 2.15884 30.0904 -4.774 27.0033 6.20806C27.0033 6.20806 18.5771 6.51954 11.4831 14.3616C4.47849 15.8822 -0.076644 23.5646 0.000976674 25.4847C0.622463 25.3799 3.00448 24.1922 3.00448 24.1922C4.26022 20.4189 6.68417 19.6856 7.49293 19.7648L7.69558 19.6189C4.43369 25.3207 2.03162 33.4344 1.8782 45H2.48562H8.94116H10.8736C10.8736 45 10.8304 43.0385 9.51602 41.6597C10.5717 37.8659 11.9611 33.2405 12.7196 33.4418C13.4783 33.6447 12.1424 44.9997 12.1424 44.9997H12.7508H20.3394H21.1393C21.1393 44.9997 21.0956 43.0557 19.7966 41.6775C19.9466 34.4671 22.295 30.7139 29.3036 31.7887C31.0289 32.053 26.038 44.9997 26.038 44.9997H27.8296H35.4499H36.2188C36.2188 44.9997 36.155 42.1365 33.8618 40.8988C33.9103 39.5092 34.3005 35.4757 35.4499 35.3957C36.6012 35.3169 40.2535 44.9997 40.2535 44.9997H48.0638H48.6418C48.6418 44.9997 48.5587 41.0882 44.9267 40.4287C44.3943 39.2528 44.04 38.0926 43.6392 36.8321C42.7452 34.0409 40.2681 25.2752 40.2681 25.2752C40.2681 25.2752 40.0345 24.2246 41.2092 23.7059C42.8885 22.9612 43.1432 22.9211 43.5399 23.7059C43.9356 24.4898 44.4789 25.1261 45.3723 24.7354C46.2647 24.3438 46.6599 24.5868 47.1561 25.2252C47.6517 25.8605 50.8725 29.1921 50.8725 29.1921C50.8725 29.1921 50.9553 29.2644 51.103 29.3846C51.284 29.5828 51.4551 29.935 51.1202 30.4151C50.5758 31.1989 50.2773 31.4939 49.7334 31.5426C49.187 31.5902 48.0984 31.2484 48.6431 30.7103C49.1872 30.1705 48.8418 29.7314 48.2464 29.1424C47.652 28.555 46.9578 28.0175 46.4132 29.2405C45.8693 30.4637 43.6394 35.3604 49.2875 35.1668C51.5164 35.0515 53.3936 33.9163 54.9593 31.8582C57.4994 33.128 60.8657 34.1219 64 32.8534C60.6641 32.1421 58.3608 31.5246 56.2455 29.8338C56.7987 28.7982 57.3054 27.6241 57.7607 26.3028Z" fill="white"/>
</svg>
