<svg width="30" height="16" viewBox="0 0 30 16" fill="none" xmlns="http://www.w3.org/2000/svg">
<path d="M29.5652 4.65068C29.4117 4.62615 28.279 8.4968 28.0228 8.4968C27.7669 8.4968 28.213 6.95369 27.9368 6.82311C27.705 6.71324 27.0323 7.93391 26.7734 7.75961C26.5823 7.63094 24.5792 5.70449 24.247 5.12766C23.9141 4.55074 24.3743 4.47543 24.6047 4.50015C24.8351 4.52602 25.7802 4.65001 25.8319 3.24608C25.8829 2.39215 25.576 2.66887 25.2182 2.84403C24.8605 3.01938 23.6844 4.04904 23.4798 3.97354C23.2752 3.89794 21.8435 0.13334 20.0026 0.00867731C18.1611 -0.117417 16.0902 1.16281 14.8626 1.76493C13.636 2.36715 9.00723 1.11212 6.75771 1.18734C4.5077 1.26284 1.71856 4.15241 2.47342 7.91424C2.47342 7.91424 1.50273 10.5887 0 11.7554C0.754283 12.3773 2.69927 8.83718 2.97472 8.89808C3.25037 8.95975 3.81985 10.8948 4.60292 11.4176C4.89277 11.6329 3.6261 12.7592 4.60292 14.4298C4.79113 14.9203 4.82206 15.0434 4.60292 15.1355C4.38408 15.2282 3.97674 15.9966 4.41472 15.9966C4.85367 15.9966 8.73674 15.9966 8.73674 15.9966C9.03349 16.0184 9.26304 15.1649 7.93363 15.0147C7.55051 14.9641 7.39703 14.3624 7.19229 13.9107C6.98774 13.4589 7.08958 12.9066 7.5758 12.6562C8.06163 12.4053 8.92816 13.7606 9.66931 14.6395C9.51583 15.1658 9.05577 15.9997 9.66931 15.9973C10.2829 15.9932 13.3512 15.9973 13.3512 15.9973C13.3512 15.9973 13.7339 15.7933 13.4789 15.4666C13.2231 15.1408 12.2523 15.0903 12.0725 14.5382C11.8934 13.9867 11.1299 13.1834 11.4877 12.4559C11.846 11.7275 12.0472 11.234 12.4341 11.2258C12.8254 11.2176 13.9675 11.2 14.2232 11.1752C14.4796 11.1511 14.71 11.0498 14.7607 11.6019C14.8116 12.1542 15.0421 13.5091 15.5278 14.2868C15.6808 14.8143 15.5284 14.9641 15.3232 15.2404C15.1181 15.5166 14.7865 15.9997 15.3997 15.9973C16.0137 15.9932 19.2351 15.9973 19.2351 15.9973C19.2351 15.9973 19.6951 15.4666 19.2351 15.1649C18.775 14.8649 18.1872 14.7637 18.1614 14.1361C18.136 13.5092 18.5446 12.4404 18.698 12.6653C18.8517 12.8915 18.8492 14.1449 19.4373 14.3951C20.026 14.6462 20.1496 15.2404 20.1496 15.5418C20.1496 15.8423 20.073 16.0248 20.6862 15.9973C21.3 15.9676 23.9592 15.9997 23.9592 15.9997C23.9592 15.9997 24.3936 15.6168 23.9592 15.3154C23.5237 15.0147 22.6296 14.6882 22.3736 14.1867C22.1179 13.685 20.3342 11.1005 20.7952 10.9495C21.2551 10.7993 21.6676 11.7275 23.6987 11.6525C24.2723 11.7022 25.7046 12.1789 26.2923 12.7563C26.8799 13.3335 27.8265 13.4837 28.4142 12.6553C29.002 11.8283 30.0248 9.36781 29.9995 6.98462C29.9742 4.60095 29.7188 4.67655 29.5652 4.65068Z" fill="black"/>
</svg>
