<svg width="64" height="46" viewBox="0 0 64 46" fill="none" xmlns="http://www.w3.org/2000/svg">
<path d="M53.8453 18.0836C46.3673 18.3147 36.4207 19.3195 25.459 21.3283C14.4968 23.3364 12.1453 20.0872 11.0849 16.4614C9.88416 12.3562 11.1301 10.2854 11.1301 10.2854C18.2242 9.05838 18.8441 4.24758 18.6665 1.50962C17.9578 2.45511 16.8722 3.07576 15.972 3.11185C15.3271 3.13682 13.3475 0.990218 10.1552 4.43578C10.3331 2.54841 9.48492 1.3019 7.32853 0.660372C5.11583 -0.000907974 3.41925 3.1795 0.0476353 0C-0.661707 10.0039 6.78575 10.2854 6.78575 10.2854C3.75196 28.0509 16.3849 37.0928 16.6022 38.1751C16.82 39.2555 13.1901 40.337 13.8429 41.4209C14.4966 42.5015 18.9252 42.2713 21.5395 41.7283C34.2432 45.2821 36.9944 45.9752 52.1753 45.5945C64.3913 45.2837 64.2546 33.8429 63.8934 29.8175C63.1838 21.9049 61.3232 17.8514 53.8453 18.0836Z" fill="white"/>
</svg>
