<svg width="30" height="22" viewBox="0 0 30 22" fill="none" xmlns="http://www.w3.org/2000/svg">
<path d="M27.0753 12.4756C27.9815 9.82697 26.1465 2.78934 23.8931 1.95347C21.6404 1.11687 20.1998 1.02395 20.1998 1.02395C20.1998 1.02395 14.1049 -2.26434 12.6578 2.94453C12.6578 2.94453 8.708 3.09226 5.38271 6.8118C2.09929 7.53303 -0.0359269 11.1769 0.000457816 12.0876C0.29178 12.0379 1.40835 11.4745 1.40835 11.4745C1.99698 9.68485 3.1332 9.337 3.51231 9.3746L3.6073 9.30538C2.07829 12.0098 0.95232 15.8582 0.880406 21.3438H1.16513H4.19117H5.097C5.097 21.3438 5.07673 20.4135 4.46063 19.7595C4.95549 17.96 5.60675 15.7662 5.9623 15.8617C6.31796 15.9579 5.69173 21.3437 5.69173 21.3437H5.97695H9.5341H9.90906C9.90906 21.3437 9.88855 20.4216 9.27965 19.7679C9.34998 16.348 10.4508 14.5678 13.736 15.0776C14.5448 15.203 12.2053 21.3437 12.2053 21.3437H13.0451H16.6172H16.9776C16.9776 21.3437 16.9477 19.9856 15.8727 19.3986C15.8954 18.7395 16.0783 16.8264 16.6172 16.7884C17.1568 16.7511 18.8688 21.3437 18.8688 21.3437H22.5299H22.8008C22.8008 21.3437 22.7619 19.4884 21.0594 19.1756C20.8098 18.6179 20.6438 18.0676 20.4559 17.4697C20.0368 16.1458 18.8757 11.9882 18.8757 11.9882C18.8757 11.9882 18.7662 11.4899 19.3168 11.2439C20.104 10.8907 20.2234 10.8716 20.4093 11.2439C20.5948 11.6157 20.8495 11.9175 21.2683 11.7322C21.6866 11.5465 21.8718 11.6617 22.1044 11.9645C22.3367 12.2658 23.8465 13.846 23.8465 13.846C23.8465 13.846 23.8853 13.8803 23.9545 13.9373C24.0394 14.0314 24.1196 14.1984 23.9626 14.4261C23.7074 14.7979 23.5675 14.9378 23.3125 14.9609C23.0564 14.9835 22.5461 14.8213 22.8014 14.5661C23.0565 14.3101 22.8946 14.1018 22.6155 13.8224C22.3369 13.5438 22.0115 13.2889 21.7562 13.869C21.5012 14.4492 20.456 16.7717 23.1035 16.6799C24.1483 16.6252 25.0282 16.0867 25.7622 15.1106C26.9528 15.7129 28.5308 16.1843 30 15.5826C28.4363 15.2452 27.3566 14.9523 26.3651 14.1504C26.6244 13.6592 26.8619 13.1023 27.0753 12.4756Z" fill="black"/>
</svg>
