<svg width="30" height="22" viewBox="0 0 30 22" fill="none" xmlns="http://www.w3.org/2000/svg">
<path d="M25.24 8.71144C21.7347 8.81957 17.0722 9.2897 11.9339 10.2296C6.79538 11.1692 5.6931 9.64893 5.19604 7.95239C4.6332 6.03152 5.21723 5.06259 5.21723 5.06259C8.54258 4.48847 8.83319 2.23747 8.74992 0.956359C8.41771 1.39876 7.90886 1.68917 7.48688 1.70606C7.18457 1.71774 6.25663 0.713329 4.76026 2.32553C4.84364 1.44242 4.44605 0.859168 3.43525 0.558992C2.39804 0.249575 1.60277 1.73771 0.0223291 0.25C-0.310175 4.93088 3.18082 5.06259 3.18082 5.06259C1.75873 13.3752 7.68042 17.6059 7.7823 18.1124C7.88437 18.6179 6.18286 19.1239 6.48887 19.6311C6.79528 20.1367 8.87118 20.029 10.0966 19.7749C16.0515 21.4378 17.3411 21.7621 24.4572 21.584C30.1834 21.4385 30.1194 16.0853 29.95 14.2018C29.6174 10.4994 28.7453 8.60278 25.24 8.71144Z" fill="#313E50"/>
</svg>
